<?xml version="1.0" encoding="utf-8"?>
<!-- Generator: Adobe Illustrator 24.0.1, SVG Export Plug-In . SVG Version: 6.00 Build 0)  -->
<svg version="1.1" id="b97f36cd-1417-4217-a7e5-07ee56e4a0b7"
	 xmlns="http://www.w3.org/2000/svg" xmlns:xlink="http://www.w3.org/1999/xlink" x="0px" y="0px" viewBox="0 0 890.2 504.9"
	 style="enable-background:new 0 0 890.2 504.9;" xml:space="preserve">
<style type="text/css">
	.st0{fill:#2F2E41;}
	.st1{fill:#FFB6B6;}
	.st2{fill:#FFB8B8;}
	.st3{fill:#E4E4E4;}
	.st4{fill:#FFFFFF;}
	.st5{fill:#F0F0F0;}
	.st6{fill:#CACACA;}
	.st8{fill:#E6E6E6;}
	.st9{fill:#3F3D56;}
</style>
<path class="st0" d="M206.6,153.4h-57v-30.5c0-15.7,12.8-28.5,28.5-28.5s28.5,12.8,28.5,28.5V153.4z"/>
<polygon class="st1" points="232,492.8 244.3,492.8 250.1,445.5 232,445.5 "/>
<path class="st0" d="M228.9,488.8H253l0,0c8.5,0,15.4,6.9,15.4,15.4v0.5h-39.5V488.8z"/>
<polygon class="st1" points="85.5,476.4 96.2,482.5 124.5,444.1 108.7,435.3 "/>
<path class="st0" d="M84.7,471.4l21,11.9l0,0c7.4,4.2,10,13.6,5.8,21l-0.2,0.4l-34.4-19.4L84.7,471.4z"/>
<path class="st0" d="M163.8,280.1l-0.9,4.7c0,0-2.8,2.8-1.4,4.3s0.9,8,0.9,8c-0.8,12.1-16.6,79.9-19.4,93.2c0,0-21.8,14.2-38.8,42.1
	s-17.5,35-17.5,35l18.9,8l47.3-57.2c0,0,13.2-8,18-15.1s34.1-80.4,34.1-80.4l16.6,76.6c0,0-0.9,27.9,3.3,45.9
	c2.6,11.3,4.2,22.9,4.7,34.5l22.2-2.4c0,0-1.4-67.2-3.8-74.3c0,0,9.9-81.8-9.9-114.5l-16-42.7l-15.7-6L163.8,280.1z"/>
<path class="st2" d="M177.8,101.9c29.8,0.5,29.8,44.9,0,45.4C148,146.8,148,102.4,177.8,101.9z"/>
<path class="st0" d="M200.8,123.4h-5.1l-1.4-3.5l0.7,3.5h-27.7l0.9-7.2l-6.7,7.2h-6.7v-3.9c0-12.7,10.3-23.1,23-23.1
	s23.1,10.3,23.1,23v0.1v3.9H200.8z"/>
<path class="st3" d="M208.6,160.6l-56.4,0.5L164.1,282c0,0,66-3.5,66-23.6l-6.2-17.9L208.6,160.6z"/>
<path id="a921541c-c001-4299-8f7c-75c007cac120" class="st4" d="M313.6,371.6L117,412.3c-2,0.4-4.3-2.6-5.2-6.7l-20.7-99.8
	c-0.9-4.1,0.1-7.8,2.1-8.2l196.6-40.7c2-0.4,4.3,2.6,5.2,6.7l20.7,99.8C316.5,367.5,315.6,371.1,313.6,371.6z"/>
<g id="a63949a2-a794-48d0-a35a-8c12e4616a27">
	<circle id="bdfdee77-367c-420e-9119-e33862087a46" class="st5" cx="164.6" cy="324" r="17.6"/>
	<path id="f21c0c69-10dc-4e04-b124-1a0d4dcadc3b" class="st3" d="M229.5,365.8l-84.3,17.5c-0.1,0-0.2,0-0.3,0l25.6-77.4
		c0.5-1.5,2.1-2.3,3.6-1.8c0.5,0.2,0.9,0.4,1.3,0.8l36.4,40.8l1.7,2L229.5,365.8z"/>
	<path id="a63814cd-9c0a-4ddf-af41-edb1ac5f3322" class="st3" d="M276.4,356.1l-73,15.1l9.9-23.5l0.7-1.7l12.9-30.6
		c0.9-1.9,3.2-2.6,5.1-1.7c0.1,0.1,0.2,0.1,0.4,0.2c0.1,0.1,0.2,0.2,0.3,0.3L276.4,356.1z"/>
</g>
<path id="e00a8b63-2679-46d7-8caf-93b6261f662d" class="st6" d="M313.6,371.6L117,412.3c-2,0.4-4.3-2.6-5.2-6.7l-20.7-99.8
	c-0.9-4.1,0.1-7.8,2.1-8.2l196.6-40.7c2-0.4,4.3,2.6,5.2,6.7l20.7,99.8C316.5,367.5,315.6,371.1,313.6,371.6z M93.8,300.6
	c-1.2,0.2-1.8,2.5-1.3,4.9l20.7,99.8c0.5,2.5,1.9,4.3,3.1,4l196.6-40.7c1.2-0.2,1.8-2.5,1.3-4.9l-20.7-99.8c-0.5-2.5-1.9-4.3-3.1-4
	L93.8,300.6z"/>
<path class="st1" d="M255.4,279.2c-4.7-2.2-6.7-7.8-4.5-12.5c0.2-0.5,0.5-1,0.8-1.4l-11.4-18.1l9.3-9.6l15.8,25.8
	c4,3.3,4.7,9.2,1.4,13.3C264,280,259.3,281.1,255.4,279.2L255.4,279.2z"/>
<path class="st3" d="M199.9,165.3l8.2-5.4c0,0,6.3,1.4,13,14.3s33.8,70.7,33.8,70.7l-11.1,11.3l-29.7-45.3L199.9,165.3z"/>
<path class="st1" d="M149.8,293.6c3.3-4,2.7-9.9-1.3-13.2c-0.4-0.3-0.9-0.7-1.4-0.9l2.5-21.3l-12.6-4.6l-3,30.1
	c-2.2,4.7-0.2,10.3,4.5,12.6C142.3,298.1,147,297,149.8,293.6L149.8,293.6z"/>
<path class="st3" d="M159.6,171.4l-7.4-10.4c0,0-5.1-1.1-11.1,5.9s-9.5,94.5-9.5,94.5l22,5l13-62L159.6,171.4z"/>
<path class="st6" d="M382,504.9H1c-0.6,0-1-0.4-1-1s0.4-1,1-1h381c0.6,0,1,0.4,1,1S382.6,504.9,382,504.9z"/>
<path class="st7" d="M136.9,324l-32.5,6.9c0.4-10.6-2.3-21.5-6.9-32.5l32.5-6.9C127.6,302.8,130.1,314.6,136.9,324z"/>
<rect x="104" y="302.1" transform="matrix(0.9782 -0.2077 0.2077 0.9782 -60.6722 30.3303)" class="st4" width="20.2" height="4"/>
<rect x="105.7" y="310" transform="matrix(0.9782 -0.2077 0.2077 0.9782 -62.2748 30.856)" class="st4" width="20.2" height="4"/>
<rect x="107.4" y="317.9" transform="matrix(0.9782 -0.2077 0.2077 0.9782 -63.8774 31.3816)" class="st4" width="20.2" height="4"/>
<rect x="374.9" y="0.3" class="st8" width="515.3" height="330"/>
<rect x="389.7" y="41.7" class="st4" width="485.8" height="269.1"/>
<rect x="374.7" class="st7" width="515.3" height="21.9"/>
<circle class="st4" cx="391" cy="11.2" r="4.1"/>
<circle class="st4" cx="406.4" cy="11.2" r="4.1"/>
<circle class="st4" cx="421.8" cy="11.2" r="4.1"/>
<rect x="426.7" y="42.5" class="st4" width="411.7" height="267.5"/>
<path class="st9" d="M606.7,68.6c12.1,0.2,12.1,18.2,0,18.4C594.6,86.8,594.6,68.9,606.7,68.6z"/>
<path class="st7" d="M632.6,68.6c12.1,0.2,12.1,18.2,0,18.4C620.4,86.8,620.4,68.9,632.6,68.6z"/>
<path class="st6" d="M658.4,68.6c12.1,0.2,12.1,18.2,0,18.4C646.4,86.8,646.4,68.9,658.4,68.6z"/>
<rect x="497.9" y="139.1" class="st6" width="82.3" height="1"/>
<path class="st6" d="M767.8,283.8H654.5V178h113.3V283.8z M655.5,282.8h111.3V179H655.5V282.8z"/>
<rect x="710.7" y="154.1" transform="matrix(0.6823 -0.7311 0.7311 0.6823 57.1731 593.2542)" class="st6" width="1" height="153.6"/>
<rect x="634.4" y="230.4" transform="matrix(0.7311 -0.6823 0.6823 0.7311 33.6844 547.3157)" class="st6" width="153.6" height="1"/>
<path class="st6" d="M767.8,125.1H497.4v-18.5h270.5V125.1z M498.3,124.1h268.5v-16.5H498.3V124.1z"/>
<path class="st6" d="M597.4,206.8h-99.2v-18.5h99.2V206.8z M499.1,205.7h97.2v-16.5h-97.2V205.7z"/>
<path class="st6" d="M597.4,238h-99.2v-18.5h99.2V238z M499.1,236.9h97.2v-16.5h-97.2V236.9z"/>
<path class="st6" d="M597.4,269.2h-99.2v-18.5h99.2V269.2z M499.1,268.1h97.2v-16.5h-97.2V268.1z"/>
<path class="st7" d="M524.1,161.9h-26.6c2.1-8.2,1.8-17.2,0-26.6h26.6C520.3,143.9,520.3,153.5,524.1,161.9z"/>
<rect x="501.5" y="141" class="st4" width="16.2" height="3.2"/>
<rect x="501.5" y="147.5" class="st4" width="16.2" height="3.2"/>
<rect x="501.5" y="153.9" class="st4" width="16.2" height="3.2"/>
<path class="st7" d="M724.5,202.2h-26.6c2.1-8.2,1.8-17.2,0-26.6h26.6C720.9,184,720.9,193.7,724.5,202.2z"/>
<rect x="702" y="181.2" class="st4" width="16.2" height="3.2"/>
<rect x="702" y="187.6" class="st4" width="16.2" height="3.2"/>
<rect x="702" y="194.1" class="st4" width="16.2" height="3.2"/>
<path class="st7" d="M758.8,145.1h-26.6c2.1-8.2,1.8-17.2,0-26.6h26.6C755,127,755,136.7,758.8,145.1z"/>
<rect x="736.2" y="124.2" class="st4" width="16.2" height="3.2"/>
<rect x="736.2" y="130.6" class="st4" width="16.2" height="3.2"/>
<rect x="736.2" y="137.1" class="st4" width="16.2" height="3.2"/>
</svg>
