<?xml version="1.0" encoding="utf-8"?>
<!-- Generator: Adobe Illustrator 24.0.1, SVG Export Plug-In . SVG Version: 6.00 Build 0)  -->
<svg version="1.1" id="e7e3dec0-027d-49b8-bdc7-ccab56ef871f"
	 xmlns="http://www.w3.org/2000/svg" xmlns:xlink="http://www.w3.org/1999/xlink" x="0px" y="0px" viewBox="0 0 770 431"
	 style="enable-background:new 0 0 770 431;" xml:space="preserve">
<style type="text/css">
	.st0{fill:#9E616A;}
	.st1{fill:#2F2E41;}
	.st2{fill:#CACACA;}
	.st3{opacity:0.1;enable-background:new    ;}
	.st4{fill:#FFFFFF;}
	.st5{fill:#E4E4E4;}
	.st6{fill:#00C0E7;}
	.st7{fill:#FF6582;}
</style>
<g>
	<polygon class="st0" points="147.6,385.3 160.9,385.3 156.6,419.9 147.6,419.9 	"/>
	<path class="st1" d="M145.3,417l17.7,0h0c6.2,0,11.3,5,11.3,11.3v0.4l-29,0L145.3,417z"/>
	<polygon class="st0" points="212.7,385.9 225.6,382.9 229.5,417.5 220.7,419.6 	"/>
	<path class="st1" d="M217.8,417.3l17.2-4.1l0,0c6.1-1.4,12.1,2.3,13.6,8.3l0.1,0.4l-28.2,6.7L217.8,417.3z"/>
	<circle class="st0" cx="186.8" cy="107.9" r="19"/>
	<path class="st1" d="M181.6,235.2c10.2,0.7,20.8,63.2,25.1,71.4s8.1,33.3,8.1,33.3s19.7,63,19,64.9s-16.7,6.5-16.7,6.5l-26.6-62.6
		l-24.9-47.2c0,0-10.3-15.7-21.4-31.8s-2.3-26.5-2.3-26.5S171.5,234.6,181.6,235.2z"/>
	<path class="st1" d="M171.6,297c0,0-6.9,35-5.6,39.3s-3.3,14.1-3.3,14.1l-1.3,58.6l-16.7,1.6c0,0-1.3-24.6-4.6-39.7
		s2.3-58.2,2.3-58.2l1.2-50.8L171.6,297z"/>
	<path class="st2" d="M199.1,223.7l-2.9-14.1c0,0,2.6-14.7,0-19s-1.3-51.4-9.2-54.4c0,0-6.2-3.3-12.1-6.4
		c-5.1-2.7-10.1-5.3-10.5-5.4c-0.9-0.3-18.3,12.3-21.7,32.8c-0.2,1.4-0.3,2.8-0.3,4.2c0.6,12.9,0.6,25.8-0.2,38.6l-2,32.1l0.7,6.9
		l-0.7,7.5c0,0,48.9,8.8,58.8-1.6C208.9,234.5,199.1,223.7,199.1,223.7z"/>
	<path class="st3" d="M181.7,229.4l13.9,29.1l-5.1,13.7v-9.2l-7.2-3.9c0,0-21.3-53.4-23.3-72s7.2-46.2,7.2-46.2
		C199.1,128.9,181.7,229.4,181.7,229.4z"/>
	<path class="st1" d="M170.8,118.3c-2.5-2.1-2.9-5.5-3.2-8.6c-0.7-8.1,2-18.9,9.7-23c5.3-2.8,11.8-1.8,17.6-0.1
		c4.4,1.3,8.8,3,12,6.2s5.1,8.1,3.6,12.4c-1.8,0.5-3.7-0.4-5.5-1s-4-0.8-5.3,0.6c-0.5,0.8-0.9,1.6-1.3,2.4c-1.1,2-3.5,2.8-5.8,3
		s-4.5-0.2-6.8,0c-1.8,0.2-3.7,0.8-4.5,2.4c-0.4,1.1-0.7,2.3-0.8,3.5C179.5,121.1,174.4,121.4,170.8,118.3z"/>
	<path class="st0" d="M207.8,285.5c3.4-2.6,4.1-7.5,1.5-10.9l-7.6-23.8l-14-2.8l10.3,25.5c-0.3,0.3-0.7,0.6-0.9,1
		c-2.7,3.3-2.1,8.2,1.2,10.9C201,287.7,204.9,287.7,207.8,285.5z"/>
	<path class="st2" d="M202,231.5c0,0-0.7,10.8,2.9,12.8s-1.6,8.5-1.6,8.5l3.3,10.8l-15.1,4.3v-9.2l-7.2-3.9c0,0-21.3-53.4-23.3-72
		s7.2-46.2,7.2-46.2C200.1,124.4,202,231.5,202,231.5z"/>
</g>
<g>
	<path class="st4" d="M689.5,428.8H363.3V0h326.1V428.8z"/>
	<path class="st5" d="M689.5,428.8H363.3V0h326.1V428.8z M366.2,425.9h320.3V2.9H366.2V425.9z"/>
	<rect x="412.3" y="108.5" class="st5" width="227" height="15.1"/>
	<rect x="464.2" y="54.4" class="st5" width="145.9" height="7.6"/>
	<rect x="412.3" y="142" class="st5" width="227" height="15.1"/>
	<rect x="412.3" y="175.5" class="st5" width="227" height="15.1"/>
	<circle class="st6" cx="424.2" cy="57.7" r="14.1"/>
	<rect x="410.2" y="225.7" class="st6" width="229.2" height="139.5"/>
	<path class="st7" d="M423.1,384.7c-3-3-7.7-3-10.7,0c-3,3-3,7.7,0,10.7l0,0l10.7,10.7l10.7-10.7c3-3,3-7.7,0-10.7
		C430.8,381.8,426.1,381.8,423.1,384.7z"/>
</g>
<path class="st2" d="M0,430c0-0.6,0.4-1,1-1h768c0.6,0,1,0.4,1,1s-0.4,1-1,1H1C0.4,431,0,430.6,0,430z"/>
</svg>
