<?xml version="1.0" encoding="utf-8"?>
<!-- Generator: Adobe Illustrator 24.0.1, SVG Export Plug-In . SVG Version: 6.00 Build 0)  -->
<svg version="1.1" id="e7f7d68b-2588-4b60-b05b-c60a9ab492d2"
	 xmlns="http://www.w3.org/2000/svg" xmlns:xlink="http://www.w3.org/1999/xlink" x="0px" y="0px" viewBox="0 0 923.2 523.3"
	 style="enable-background:new 0 0 923.2 523.3;" xml:space="preserve">
<style type="text/css">
	.st0{fill:#E5E5E5;}
	.st1{fill:#FFFFFF;}
	.st2{fill:#3F3D56;}
	.st3{fill:#E6E6E6;}
	.st4{fill:#00C0E7;}
	.st5{opacity:0.2;enable-background:new    ;}
	.st6{fill:#CCCCCC;}
	.st7{fill:#2F2E41;}
	.st8{fill:#9F616A;}
</style>
<path class="st0" d="M244.3,281.6h-1.7v-47.2c0-15.1-12.2-27.3-27.3-27.3c0,0,0,0,0,0h-100c-15.1,0-27.3,12.2-27.3,27.3v258.8
	c0,15.1,12.2,27.3,27.3,27.3h100c15.1,0,27.3-12.2,27.3-27.3V315.2h1.7L244.3,281.6z"/>
<path class="st1" d="M216.4,214.2h-13c2,5-0.4,10.6-5.3,12.6c-1.2,0.5-2.4,0.7-3.7,0.7h-57.3c-5.4,0-9.7-4.3-9.7-9.7
	c0-1.3,0.2-2.5,0.7-3.7H116c-11.3,0-20.4,9.1-20.4,20.4l0,0v258.4c0,11.3,9.1,20.4,20.4,20.4l0,0h100.4c11.3,0,20.4-9.1,20.4-20.4
	l0,0l0,0V234.6C236.8,223.4,227.7,214.2,216.4,214.2L216.4,214.2z"/>
<rect x="123.2" y="322.9" class="st1" width="90.4" height="61"/>
<path class="st2" d="M213.9,384.2h-91v-61.6h91L213.9,384.2z M123.5,383.6h89.8v-60.4h-89.8V383.6z"/>
<path class="st3" d="M130.9,370.6H206v-42.8h-75.1V370.6z"/>
<circle class="st4" cx="153" cy="346.8" r="7.5"/>
<path class="st2" d="M176.6,370h-36.9c0,0-0.1,0-0.1,0l17.5-30.3c0.3-0.6,1.1-0.8,1.7-0.5c0.2,0.1,0.4,0.3,0.5,0.5l11.7,20.3l0.6,1
	L176.6,370z"/>
<polygon class="st5" points="176.6,370 164,370 170.2,361.1 170.6,360.4 170.8,360.1 171.4,361.1 "/>
<path class="st2" d="M197.1,370h-31.9l6.2-9l0.4-0.6l8.1-11.7c0.6-0.7,1.6-0.8,2.3-0.3c0,0,0.1,0.1,0.1,0.1c0,0,0.1,0.1,0.1,0.1
	L197.1,370z"/>
<path class="st0" d="M432.9,520.8H190.6c-12,0-21.6-9.7-21.7-21.7V147.8c0-12,9.7-21.6,21.7-21.7h242.3c12,0,21.6,9.7,21.7,21.7
	v351.4C454.5,511.1,444.8,520.8,432.9,520.8z"/>
<path class="st1" d="M433.3,507H190.2c-3.7,0-6.7-3-6.7-6.7V146.6c0-3.7,3-6.7,6.7-6.7h243.1c3.7,0,6.7,3,6.7,6.7v353.7
	C440,504,437,507,433.3,507z"/>
<circle class="st1" cx="310.8" cy="132.7" r="1.8"/>
<rect x="221.8" y="240.9" class="st1" width="191.3" height="129.1"/>
<path class="st2" d="M413.7,370.6H221.1V240.2h192.6V370.6z M222.4,369.3h190V241.6h-190L222.4,369.3z"/>
<path class="st3" d="M237.9,341.7h159v-90.5h-159V341.7z"/>
<circle class="st4" cx="284.7" cy="291.5" r="15.9"/>
<path class="st2" d="M334.7,340.6h-78.2c-0.1,0-0.2,0-0.3,0l37-64c0.7-1.2,2.3-1.7,3.5-1c0.4,0.2,0.7,0.6,1,1l24.8,43l1.2,2.1
	L334.7,340.6z"/>
<polygon class="st5" points="334.7,340.6 308,340.6 321.1,321.6 322,320.2 322.5,319.5 323.7,321.6 "/>
<path class="st2" d="M378.2,340.6h-67.6l13.1-19l0.9-1.4l17.1-24.8c1.2-1.5,3.4-1.7,4.9-0.5c0.1,0.1,0.2,0.2,0.3,0.2
	c0.1,0.1,0.2,0.2,0.2,0.3L378.2,340.6z"/>
<path class="st3" d="M673.4,516.6l-12.3-5.2l-8.4-61.5h-112l-9.1,61.2l-11,5.5c-1.3,0.6-1.8,2.2-1.2,3.5c0.4,0.9,1.3,1.4,2.3,1.4
	h150.6c1.4,0,2.6-1.2,2.6-2.6C675,518,674.4,517,673.4,516.6z"/>
<path class="st6" d="M872.5,458.2H322.2c-6,0-10.9-4.9-10.9-10.9v-77.6h572.1v77.6C883.4,453.3,878.5,458.1,872.5,458.2z"/>
<path class="st0" d="M884,406.3H310.8V74.3c0-7.3,5.9-13.1,13.1-13.1h546.9c7.3,0,13.1,5.9,13.1,13.1V406.3z"/>
<path class="st1" d="M849.7,382.2H345c-5.6,0-10.1-4.5-10.1-10.1V95.4c0-5.6,4.5-10.1,10.1-10.1h504.7c5.6,0,10.1,4.5,10.1,10.1
	v276.7C859.9,377.7,855.3,382.2,849.7,382.2z"/>
<path class="st6" d="M921.9,523.3H1.3c-0.6,0-1.1-0.4-1.3-1c-0.2-0.7,0.2-1.4,0.9-1.6c0.1,0,0.2,0,0.3,0h920.6c0.6,0,1.2,0.4,1.4,1
	c0.2,0.7-0.3,1.4-1,1.5C922.1,523.3,922,523.3,921.9,523.3z"/>
<path class="st7" d="M717.3,183.2c2.6-8.3,8.5-15.8,16.6-18.6c8.1-2.8,22.4-0.2,26.2,7.6c5.5,11.2,3,24.8,0.1,37
	c-1.5-0.1-3.1-0.1-4.6-0.2l-2.2-7.3v7.2c-12.1-0.4-24.7-0.1-37.3,0.1C715,200.4,714.7,191.5,717.3,183.2z"/>
<polygon class="st8" points="828.4,497.9 818.3,502.1 797,464.9 812,458.6 "/>
<path class="st7" d="M835.2,506.6l-32.8,13.8l-0.2-0.4c-3-7.1,0.4-15.2,7.4-18.1l0,0l20-8.4L835.2,506.6z"/>
<path class="st8" d="M679.2,322c-2.4-3.5-1.5-8.2,1.9-10.6c0.4-0.3,0.8-0.5,1.2-0.7l21.9-66l14.6,7.8L692.7,315
	c1.5,4-0.5,8.4-4.4,9.9C685,326.1,681.2,325,679.2,322L679.2,322z"/>
<polygon class="st8" points="706.2,509.7 695.1,509.7 689.9,467.1 706.2,467.1 "/>
<path class="st7" d="M709,520.4l-35.6,0v-0.5c0-7.6,6.2-13.8,13.8-13.8h0l21.7,0L709,520.4z"/>
<polygon class="st8" points="750.4,267.6 752.9,274.1 752.4,280.6 704.4,274.6 705.9,269.1 711.4,262.6 "/>
<circle class="st8" cx="734.9" cy="191.7" r="17.5"/>
<path class="st4" d="M716.4,221.6l10-6l20-2l17.7,4l-0.2,32.5l-11,24l-47-5l-2-6.5c0,0-13-17.5,1-27.5L716.4,221.6z"/>
<path class="st4" d="M718.9,223.1l-2.5-1.5c0,0-13.5,2.5-16.5,10.5s-6,44-6,44l12.5,1.5l4.5-29.5L718.9,223.1z"/>
<path class="st7" d="M752.9,278.1v11.1c0,0,13,16.9,6,29.9c0,0,15,28,16,38l14,46c0,0,35,35,32,60l2,8l-23,10l-5-7l-39-67l-33-61
	l-6,72c0,0,4,56-7,62l-1,9h-23.3v-8.6c0,0-8.7-30.4-3.7-53.4l-2-97c0,0,9-41,20-48l4-10L752.9,278.1z"/>
<path class="st7" d="M722.9,168.9c10.4-6.3,23.9-3,30.2,7.3c2.2,3.6,3.3,7.7,3.2,11.8c-9.8,0.4-20,0.6-30.4,0.6l-2.5-6l-1.4,6
	c-3.2,0-6.3,0-9.5,0C712.2,180.7,716.2,173.1,722.9,168.9z"/>
<rect x="475.8" y="198.4" transform="matrix(0.9692 -0.2465 0.2465 0.9692 -50.6642 155.8174)" class="st1" width="242.7" height="163.8"/>
<path class="st2" d="M736,330.4l-236.9,60.2l-40.8-160.3L695.2,170L736,330.4z M500.3,388.6l233.6-59.4l-40-157.1l-233.6,59.4
	L500.3,388.6z"/>
<path class="st3" d="M510.7,349.7L706.2,300l-28.3-111.3l-195.5,49.7L510.7,349.7z"/>
<circle class="st4" cx="552.5" cy="273.4" r="20.2"/>
<path class="st2" d="M629.3,318.2l-96.1,24.4c-0.1,0-0.2,0.1-0.4,0.1l25.4-90.3c0.5-1.8,2.3-2.8,4-2.3c0.6,0.2,1.1,0.5,1.5,0.9
	l43.9,45.1l2.1,2.2L629.3,318.2z"/>
<polygon class="st5" points="629.3,318.2 596.5,326.5 606.7,299 607.4,297 607.8,296 609.9,298.2 "/>
<path class="st2" d="M682.9,304.5l-83.1,21.1l10.2-27.5l0.7-2l13.2-35.8c1-2.2,3.6-3.2,5.8-2.2c0.1,0.1,0.3,0.1,0.4,0.2
	c0.1,0.1,0.3,0.2,0.4,0.3L682.9,304.5z"/>
<path class="st8" d="M736.3,301.1c0.4,0.1,0.8,0.2,1.2,0.4l30.5-21l-0.7-9l13.4-2.8l2.8,15.8c0.5,2.6-0.9,5.2-3.2,6.4l-37.8,18.6
	c-0.4,4.3-4.2,7.5-8.5,7.1s-7.5-4.2-7.1-8.5c0.4-4.3,4.2-7.5,8.5-7.1C735.7,301,736,301,736.3,301.1z"/>
<path class="st4" d="M756.9,219.1l7.2-1.5c0,0,15.8-5.5,16.8,14.5l2,47l-14.9,2l-6.1-41L756.9,219.1z"/>
</svg>
