<?xml version="1.0" encoding="UTF-8"?>
<svg enable-background="new 0 0 924 524.1" version="1.1" viewBox="0 0 924 524.1" xml:space="preserve" xmlns="http://www.w3.org/2000/svg">
<style type="text/css">
	.st0{fill:#FFB8B8;}
	.st1{fill:#E5E5E5;}
	.st2{fill:#FFFFFF;}
	.st3{fill:#3F3D56;}
	.st4{fill:#00C0E7;}
	.st5{fill:#E6E6E6;}
	.st6{fill:#F2F2F2;}
	.st7{fill:#CCCCCC;}
	.st8{fill:#F1F1F1;}
	.st9{fill:#CBCBCB;}
	.st10{fill:#2F2E41;}
</style>

	<path class="st0" d="m767.6 182.3c7.7-3.3 16.7 0.2 20.1 8 0.2 0.5 0.4 1.1 0.6 1.6 0.2 0.7 0.3 1.3 0.4 2l61 30.2 14.1-9.4 17.6 20.2-21.5 17.5c-5.3 4.3-12.8 4.6-18.5 0.7l-61.9-42.8c-0.5 0.2-0.9 0.4-1.4 0.5-8.1 2.4-16.6-2.1-19-10.2-0.2-0.6-0.3-1.1-0.4-1.7s-0.2-1.2-0.2-1.9c-0.4-6.2 3.2-12.1 9.1-14.7z"/>
	<path class="st1" d="m11.6 276.2c0 5 4 9 9 9h14.7l2.6 4.8v211.1c0 5 4 9 9 9s9-4 9-9v-215.9h493.9l0.1 215.8c0 5 4 9 9 9s9-4 9-9v-215.8h16c5 0 9-4 9-9s-4-9-9-9h-563.3c-5 0-9 4-9 9z"/>
	<path class="st1" d="M218.2,403.8v-33.3c0-3.1-2.5-5.6-5.6-5.6H86.4c-3.1,0-5.6,2.5-5.6,5.6v33.3H218.2z"/>
	<rect class="st1" x="80.8" y="416.3" width="137.4" height="43"/>
	<path class="st1" d="M80.8,471.8v33.3c0,3.1,2.5,5.6,5.6,5.6h126.3c3.1,0,5.6-2.5,5.6-5.6v-33.3H80.8z"/>
	<circle class="st2" cx="150.2" cy="385.7" r="4.2"/>
	<circle class="st2" cx="150.2" cy="441.2" r="4.2"/>
	<circle class="st2" cx="150" cy="495.6" r="4.2"/>
	<path class="st3" d="m54.9 255.5v11c0.1 1.2 1.2 2.2 2.4 2.1h43.6c0.4 0 0.8-0.1 1.2-0.3l11-5.5c1-0.4 1.5-1.6 1.1-2.6-0.2-0.5-0.6-0.9-1.1-1.1l-11-5.5c-0.4-0.2-0.8-0.3-1.2-0.3h-43.6c-1.3 0-2.3 0.9-2.4 2.2z"/>
	<path class="st4" d="m57.3 253.3h8.7v15.3h-8.7c-1.3 0.1-2.3-0.9-2.4-2.1v-11c0.1-1.3 1.1-2.2 2.4-2.2z"/>
	<path class="st5" d="m1103.3 389.6c-11.3 4-23.9 1.8-33.2-5.8-11.6-9.7-15.3-25.8-18.2-40.7-2.9-14.7-5.8-29.3-8.8-44l18.3 12.6c13.2 9.1 26.7 18.5 35.8 31.6 9.1 13.2 13.1 31.1 5.8 45.4"/>
	<path class="st6" d="m1101.8 442.9c1.9-13.5 3.8-27.2 2.5-40.9-1.2-12.1-4.9-24-12.4-33.7-4-5.2-8.9-9.6-14.4-13-1.4-0.9-2.8 1.4-1.3 2.3 9.6 6 16.9 15 21.1 25.5 4.6 11.7 5.3 24.4 4.5 36.8-0.5 7.5-1.5 15-2.5 22.4-0.2 0.7 0.2 1.4 0.9 1.6 0.6 0.1 1.4-0.3 1.6-1z"/>
	<path class="st5" d="m1083.9 419c-4.9 7.4-13.2 11.7-22 11.4-11.2-0.5-20.4-8.3-28.8-15.7l-24.8-21.9 16.4-0.8c11.8-0.6 23.9-1.1 35.1 2.5s21.6 12.4 23.6 24"/>
	<path class="st6" d="m1107 450.7c-8.9-15.8-19.3-33.4-37.8-39-5.2-1.6-10.6-2.1-15.9-1.6-1.7 0.1-1.3 2.8 0.4 2.6 9-0.7 18 1.6 25.4 6.7 7.2 4.9 12.7 11.7 17.5 18.8 2.9 4.4 5.5 9 8.1 13.6 0.7 1.4 3.1 0.4 2.3-1.1z"/>
	<path class="st6" d="m1121.3 467.3c-0.6-7.1-5.1-13.3-11.7-16v-9.1h-15.3v9.4c-6.3 2.9-10.5 8.9-11.1 15.7l-3.6 41.9h45.4l-3.7-41.9z"/>
	<path class="st7" d="m-78.4 510.7c0-0.8 0.6-1.4 1.4-1.4l1280.1 0.5c0.8 0 0.9 0.1 0.9 0.9s-0.6 1.4-1.4 1.4h-1279.6c-0.7 0-1.4-0.6-1.4-1.4z"/>
	<path class="st5" d="m253.7 265.7 4.6-1.9 3.1-22.8h41.6l3.4 22.7 4.1 2c0.5 0.2 0.7 0.8 0.4 1.3-0.2 0.3-0.5 0.5-0.9 0.5h-56c-0.5 0-1-0.4-1-1 0.1-0.3 0.4-0.6 0.7-0.8z"/>
	<path class="st7" d="m175.7 239.9v-28.8h212.5v28.8c0 2.2-1.8 4-4 4.1h-204.4c-2.3 0-4.1-1.8-4.1-4.1z"/>
	<path class="st3" d="m175.5 101.4c0-2.7 2.2-4.9 4.9-4.9h203.2c2.7 0 4.9 2.2 4.9 4.9v123.4h-213v-123.4z"/>
	<path class="st2" d="m184.5 212v-102.8c0-2.1 1.7-3.8 3.8-3.8h187.5c2.1 0 3.8 1.7 3.8 3.8v102.8c0 2.1-1.7 3.8-3.8 3.8h-187.6c-2 0-3.7-1.7-3.7-3.8z"/>
	<path class="st2" d="M579.6,0h187.9v224.4H579.6V0z"/>
	<path class="st1" d="M579.6,0h187.9v224.4H579.6V0z M764.2,3.3H582.9V221h181.3V3.3z"/>
	<rect class="st8" x="607.9" y="108.6" width="131.4" height="5.1"/>
	<polygon class="st9" points="725.2 78.3 726.6 78.3 726.6 26.9 676.1 26.9 676.1 28.3 725.2 28.3"/>
	<polygon class="st9" points="624.2 83 674.7 83 674.7 81.6 625.6 81.6 625.6 31.6 624.2 31.6"/>
	<rect class="st8" x="607.9" y="121.9" width="131.4" height="5.1"/>
	<rect class="st8" x="607.9" y="135.1" width="131.4" height="5.1"/>
	<rect class="st8" x="607.9" y="158.4" width="131.4" height="5.1"/>
	<rect class="st8" x="607.9" y="171.7" width="131.4" height="5.1"/>
	<rect class="st8" x="607.9" y="184.9" width="131.4" height="5.1"/>
	<path class="st4" d="m663.6 40.9 1.3-1.6-2-2.3-1.8 1.1c-1-0.8-2.2-1.4-3.5-1.7l-0.2-2.3-3-0.2-0.5 2.2c-1.4 0.2-2.8 0.6-4 1.3l-1.5-1.2-2.3 2 1 1.6c-0.9 1.1-1.5 2.4-1.8 3.8l-2.2 0.2-0.2 3 2.2 0.5c0.2 1.3 0.6 2.6 1.3 3.7l-1.2 1.5 2 2.3 1.6-1c1.1 0.8 2.3 1.4 3.6 1.8l0.2 2.4 3 0.2 0.5-2.3c1.4-0.2 2.7-0.6 3.9-1.3l1.6 1.3 2.3-2-1.1-1.8c0.8-1.1 1.5-2.3 1.8-3.7l2.3-0.2 0.2-3-2.3-0.5c-0.1-1.4-0.5-2.7-1.2-3.8zm-3.2 11.1c-3.3 2.9-8.4 2.6-11.4-0.7-2.9-3.3-2.6-8.4 0.7-11.4 3.3-2.9 8.4-2.6 11.4 0.7 3 3.4 2.7 8.5-0.7 11.4z"/>
	<path class="st4" d="m681.7 62.8 1.8-1-1-2.8-2.1 0.4c-0.7-1.1-1.5-2.1-2.6-2.9l0.6-2.2-2.7-1.3-1.3 1.8c-1.4-0.4-2.8-0.5-4.2-0.2l-0.9-1.7-2.8 1 0.3 1.9c-1.2 0.7-2.3 1.7-3.1 2.9l-2.1-0.6-1.3 2.7 1.9 1.3c-0.3 1.3-0.4 2.6-0.1 3.9l-1.7 0.9 1 2.8 1.9-0.3c0.7 1.2 1.6 2.2 2.7 3l-0.6 2.3 2.6 1.3 1.3-1.9c1.3 0.3 2.7 0.4 4.1 0.2l1 1.8 2.8-1-0.4-2.1c1.2-0.7 2.2-1.6 3-2.7l2.3 0.6 1.3-2.7-2-1.4c0.5-1.3 0.5-2.7 0.3-4zm-7 9.2c-4.2 1.5-8.8-0.7-10.3-4.9s0.7-8.8 4.9-10.3 8.8 0.7 10.3 4.9c1.4 4.2-0.7 8.8-4.9 10.3z"/>
	<path class="st4" d="m704.1 49.7 1.3-1.7-2.1-2.2-1.7 1.2c-1.1-0.8-2.3-1.3-3.5-1.6l-0.3-2.3-3-0.1-0.4 2.2c-1.4 0.2-2.8 0.7-4 1.5l-1.5-1.2-2.2 2.1 1.1 1.6c-0.8 1.2-1.4 2.5-1.7 3.9l-2.2 0.3-0.1 3 2.3 0.4c0.2 1.3 0.7 2.5 1.4 3.6l-1.2 1.5 2.1 2.2 1.6-1.1c1.1 0.8 2.3 1.4 3.6 1.6l0.3 2.4 3 0.1 0.4-2.3c1.4-0.2 2.7-0.7 3.8-1.5l1.7 1.3 2.2-2.1-1.2-1.7c0.8-1.1 1.4-2.4 1.7-3.7l2.3-0.3 0.1-3-2.3-0.4c-0.3-1.3-0.8-2.5-1.5-3.7zm-2.7 11.3c-3.2 3.1-8.3 2.9-11.4-0.3s-2.9-8.3 0.3-11.4 8.3-2.9 11.4 0.3c3 3.2 2.9 8.3-0.3 11.4z"/>
	<path class="st4" d="m306.5 169.6 5.4-0.4 0.7-7.8-5.2-1.3c-0.3-3.4-1.3-6.6-2.9-9.6l3.8-4.5-5-6-4.9 2.9c-2.8-2.4-6.1-4.1-9.7-5.1l-0.4-5-7.8-0.7-1.2 4.8c-3.7 0.4-7.2 1.5-10.4 3.4l-4.4-3.7-6 5 3 5.1c-2.1 2.7-3.6 5.7-4.5 9l-5 0.4-0.7 7.8 4.8 1.2c0.3 3.5 1.4 6.8 3.1 9.9l-4 4.7 5 6 5.2-3.1c2.7 2.2 5.9 3.9 9.4 4.9l0.4 5.4 7.8 0.7 1.3-5.2c3.5-0.4 7-1.4 10-3.2l4.6 3.9 6-5-3.1-5.3c2.2-2.8 3.8-5.9 4.7-9.2zm-26.4 14c-11.4-1-19.9-11.1-18.9-22.5s11.1-19.9 22.5-18.9 19.9 11.1 18.9 22.5c-0.9 11.4-11 19.9-22.5 18.9z"/>
	<path class="st3" d="m894.6 368.5h-66.6c0 1.9-68.7 3.5-68.7 3.5-1.1 0.8-2.1 1.7-2.9 2.8-2.6 3.1-4 7-4 11.1v2.8c0 9.6 7.8 17.3 17.3 17.3h124.9c9.6 0 17.3-7.8 17.3-17.3v-2.8c0-9.6-7.7-17.4-17.3-17.4z"/>
	<rect class="st3" x="822.1" y="405.3" width="18" height="116.6"/>
	<path class="st3" d="m770.8 521.2c0 1.9 27.3 0.8 61.1 0.8 33.7 0 61.1 1.2 61.1-0.8s-27.3-17.4-61.1-17.4-61.1 15.5-61.1 17.4z"/>
	<polygon class="st0" points="787.1 507.6 770.1 507.6 762 463.4 787.1 463.4"/>
	<path class="st10" d="m791.4 524.1h-54.9v-0.7c0-11.8 9.6-21.4 21.4-21.4h33.5v22.1z"/>
	<path class="st10" d="m761.6 480.2-33.9-76.1c-5.9-13.3-0.5-28.9 12.2-35.8l73.6-39.5 33.6-2.9 31-2.8 0.2 0.4c0.3 0.5 6.9 12 2.4 24.6-3.4 9.6-12.3 17-26.4 22.2-32.9 12.1-70.9 22.4-85.8 26.3-1.3 0.3-2.4 1.2-3.1 2.4-0.6 1.2-0.7 2.6-0.3 3.9l31.5 70.8c1.2 3.2-0.5 6.8-3.7 8-0.5 0.2-1 0.3-1.6 0.4l-23.5 1.7h-0.6c-2.3 0.1-4.6-1.3-5.6-3.6z"/>
	<polygon class="st0" points="798.2 507.6 781.2 507.6 773.1 463.4 798.2 463.4"/>
	<path class="st10" d="m802.5 524.1h-54.9v-0.7c0-11.8 9.6-21.4 21.4-21.4h33.5v22.1z"/>
	<path class="st10" d="m774.1 484.4-33.9-76.1c-5.9-13.3-0.5-28.9 12.2-35.8l73.6-39.5 33.6-2.9 24.3-2.1v-0.3c0.3 0.5 6.9 12 2.4 24.6-3.4 9.6-5.4 17-19.5 22.2-32.9 12.1-70.9 22.4-85.8 26.3-1.3 0.3-2.4 1.2-3.1 2.4-0.6 1.2-0.7 2.6-0.3 3.9l31.5 70.8c1.2 3.2-0.5 6.8-3.7 8-0.5 0.2-1 0.3-1.6 0.4l-23.5 1.7h-0.6c-2.4 0.1-4.6-1.4-5.6-3.6z"/>
	<path class="st4" d="m838 329.5c-1.6-1.2-25 11.1-29.1 1.4 19.4-48.6 6-69.6 17.9-97.4 4.2-9.7 12.7-17 23-19.7l30.9-1.6 0.2 0.1c14.3 7 22.3 22.6 19.7 38.3-0.1 30.3-18.2 53.4-11.9 75.4 0.5 1.9 0.3 3.9-0.7 5.5-0.9 1.6-2.5 2.8-4.3 3.2l-40.8-5.4c-1.9 0.5-4 0.1-5.6-1.1l0.7 1.3z"/>
	<circle class="st0" cx="870.4" cy="166.6" r="34.1"/>
	<path class="st0" d="m806 282.1-59.2-46.7c-0.5 0.2-1 0.3-1.4 0.4-4.2 1-8.7 0.1-12.2-2.3-3.6-2.5-5.9-6.4-6.4-10.7-1-8.4 5-16 13.4-16.9 7.7-0.9 14.9 4.1 16.6 11.7 0.2 0.7 0.3 1.3 0.3 2l59 34 14.7-8.4 16.3 21.3-22.8 16.2c-5.6 3.7-13 3.6-18.3-0.6z"/>
	<path class="st4" d="m854.1 273-33.8-23 15.9-22.5c4.4-6.2 12.5-8.3 19.3-5.1 6.9 3.3 10.4 11.1 8.2 18.4l-9.6 32.2z"/>
	<path class="st10" d="m881.3 197.9c-1.8 0.8-5.5-13.6-3.9-16.5 2.5-4.3 2.3-4.3 4-7.1s2-6.7-0.1-9.2-7-2.2-8 1c0.6-6-5.3-10.7-11.1-12.1-5.8-1.3-12-0.5-17.8-1.7-6.8-1.4-13.9-7.1-11.2-14.6 0.5-1.2 1.2-2.4 2.1-3.4 3.1-3.5 7.5-5 11.8-6.5 8.9-3 18.1-6.1 27.5-5.8 15.9 0.8 29.7 11 35.3 25.8 0.6 1.8 1.2 3.7 1.5 5.6 3.2 17.4-6.9 34.5-23.3 41.1l-6.8 3.4z"/>
	<path class="st3" d="m397.1 385.7v2.8c0 9.6 7.8 17.3 17.3 17.3h124.9c9.6 0 17.3-7.8 17.3-17.3v-2.8c0-4.1-1.4-8-4-11.1-0.9-1-1.9-2-2.9-2.8 0 0-68.7-1.6-68.7-3.5h-66.6c-9.5 0.1-17.2 7.9-17.3 17.4z"/>
	<rect class="st3" x="468.9" y="405.2" width="18" height="116.6"/>
	<path class="st3" d="m477.3 503.7c-33.7 0-61.1 15.5-61.1 17.4s27.3 0.8 61.1 0.8 61.1 1.2 61.1-0.8c-0.1-1.9-27.4-17.4-61.1-17.4z"/>
	<polygon class="st0" points="537.5 461 562.6 461 554.5 505.2 537.5 505.2"/>
	<path class="st10" d="m533.2 499.6h33.5c11.8 0 21.4 9.6 21.4 21.4v0.7h-54.9v-22.1z"/>
	<path class="st10" d="m557.3 481.5h-0.6l-23.5-1.7c-3.4-0.3-6-3.4-5.6-6.8 0-0.5 0.2-1.1 0.4-1.6l31.5-70.8c0.5-1.3 0.4-2.7-0.3-3.9-0.6-1.2-1.7-2.1-3.1-2.4-14.8-3.9-52.8-14.2-85.8-26.3-14.1-5.2-23-12.6-26.4-22.2-4.5-12.6 2.2-24.1 2.4-24.6l0.2-0.4 31 2.8 33.6 2.9 73.6 39.5c12.8 6.9 18.1 22.5 12.2 35.8l-33.9 76c-1 2.2-3.3 3.7-5.7 3.7z"/>
	<polygon class="st0" points="529.2 461 554.3 461 546.2 505.2 529.2 505.2"/>
	<path class="st10" d="m524.9 499.6h33.5c11.8 0 21.4 9.6 21.4 21.4v0.7h-54.9v-22.1z"/>
	<path class="st10" d="m547.6 485.7h-0.6l-23.5-1.7c-3.4-0.3-6-3.4-5.6-6.8 0-0.5 0.2-1.1 0.4-1.6l31.5-70.8c0.5-1.3 0.4-2.7-0.3-3.9-0.6-1.2-1.7-2.1-3.1-2.4-14.8-3.9-52.8-14.2-85.8-26.3-14.1-5.2-23-12.6-26.4-22.2-4.5-12.6 2.2-24.1 2.4-24.6l0.2-0.4 31 2.8 33.6 2.9 73.6 39.5c12.8 6.9 18.1 22.5 12.2 35.8l-33.9 76.1c-1 2.1-3.3 3.6-5.7 3.6z"/>
	<path class="st4" d="m428.9 216.3c4.7-6 13.1-7.6 19.8-3.9 6.6 3.7 9.5 11.6 6.9 18.7l-9.3 25.9-38.2-14.5 20.8-26.2z"/>
	<path class="st4" d="m505.3 345.3c-1.6 1.1-3.6 1.5-5.6 1.1l-58.8-14c-1.8-0.4-3.4-1.6-4.3-3.2-1-1.7-1.2-3.7-0.7-5.5 6.3-22-2-49.2-11.9-75.4-2.6-15.7 5.4-31.3 19.7-38.3l0.2-0.1 30.9 1.6c10.3 2.7 18.7 9.9 23 19.7 11.9 27.9 15.3 63.6 10.4 109.3-0.2 1.8-1.3 3.6-2.9 4.8z"/>
	<circle class="st0" cx="454.2" cy="164.2" r="34.1"/>
	<path class="st0" d="m500.5 280.2-22.8-16.2 16.3-21.3 14.7 8.4 59-34c0.1-0.7 0.2-1.4 0.3-2 1.9-8.2 10.1-13.3 18.4-11.4 8.2 1.9 13.3 10.1 11.4 18.4-1.9 8.2-10.1 13.3-18.4 11.4-0.5-0.1-1-0.3-1.4-0.4l-59.2 46.7c-5.5 4-12.9 4.2-18.3 0.4z"/>
	<path class="st4" d="m460.8 238.5c-2.2-7.3 1.3-15.1 8.2-18.4 6.8-3.2 15-1.1 19.3 5.1l15.9 22.5-33.8 23-9.6-32.2z"/>
	<path class="st10" d="m466.8 159.3c1.3 2.3 1 5.2-0.8 7.2-4.8 5.5-6.1 14-4.4 21.3 2.1 8.8 7.7 16.2 13.1 23.4s11.2 14.5 13.6 23.2c5.7 20.5-9.6 42.5-29.3 50.6s-42.2 5.6-62.9 0.7c-15.7-3.7-31.8-9.1-42.5-21.2-10.7-12-13.6-32.4-2.2-43.7 8.9-8.9 22.8-9.6 35.2-11.9 12.4-2.2 26.5-8.8 28.1-21.3 1.7-12.4-10-22.7-12.2-35-2.7-15.3 10.6-30 25.7-33.8s31 0.4 45.7 5.8c11.3 4.1 23 9.5 27.3 21.8 2.4 6.8 0.5 14.6-5.3 18.8-8.9 6.4-20.5 0.2-29.2-5.8l0.1-0.1z"/>

</svg>
