<?xml version="1.0" encoding="utf-8"?>
<!-- Generator: Adobe Illustrator 24.0.1, SVG Export Plug-In . SVG Version: 6.00 Build 0)  -->
<svg version="1.1" id="bf6f8f29-0b46-46f8-b60a-c2bb8f1c26a6"
	 xmlns="http://www.w3.org/2000/svg" xmlns:xlink="http://www.w3.org/1999/xlink" x="0px" y="0px" viewBox="0 0 924 524.1"
	 style="enable-background:new 0 0 924 524.1;" xml:space="preserve">
<style type="text/css">
	.st0{fill:#FFB8B8;}
	.st1{fill:#E5E5E5;}
	.st2{fill:#FFFFFF;}
	.st3{fill:#3F3D56;}
	.st4{fill:#00C0E7;}
	.st5{fill:#E6E6E6;}
	.st6{fill:#F2F2F2;}
	.st7{fill:#CCCCCC;}
	.st8{fill:#F1F1F1;}
	.st9{fill:#CBCBCB;}
	.st10{fill:#2F2E41;}
</style>
<g>
	<path class="st0" d="M767.6,182.3c7.7-3.3,16.7,0.2,20.1,8c0.2,0.5,0.4,1.1,0.6,1.6c0.2,0.7,0.3,1.3,0.4,2l61,30.2l14.1-9.4
		l17.6,20.2l-21.5,17.5c-5.3,4.3-12.8,4.6-18.5,0.7l-61.9-42.8c-0.5,0.2-0.9,0.4-1.4,0.5c-8.1,2.4-16.6-2.1-19-10.2
		c-0.2-0.6-0.3-1.1-0.4-1.7c-0.1-0.6-0.2-1.2-0.2-1.9C758.1,190.8,761.7,184.9,767.6,182.3z"/>
	<path class="st1" d="M11.6,276.2c0,5,4,9,9,9h14.7l2.6,4.8v211.1c0,5,4,9,9,9s9-4,9-9V285.2h493.9l0.1,215.8c0,5,4,9,9,9s9-4,9-9
		V285.2h16c5,0,9-4,9-9c0-5-4-9-9-9H20.6C15.6,267.2,11.6,271.2,11.6,276.2z"/>
	<path class="st1" d="M218.2,403.8v-33.3c0-3.1-2.5-5.6-5.6-5.6H86.4c-3.1,0-5.6,2.5-5.6,5.6v33.3H218.2z"/>
	<rect x="80.8" y="416.3" class="st1" width="137.4" height="43"/>
	<path class="st1" d="M80.8,471.8v33.3c0,3.1,2.5,5.6,5.6,5.6h126.3c3.1,0,5.6-2.5,5.6-5.6v-33.3H80.8z"/>
	<circle class="st2" cx="150.2" cy="385.7" r="4.2"/>
	<circle class="st2" cx="150.2" cy="441.2" r="4.2"/>
	<circle class="st2" cx="150" cy="495.6" r="4.2"/>
	<path class="st3" d="M54.9,255.5v11c0.1,1.2,1.2,2.2,2.4,2.1h43.6c0.4,0,0.8-0.1,1.2-0.3l11-5.5c1-0.4,1.5-1.6,1.1-2.6
		c-0.2-0.5-0.6-0.9-1.1-1.1l-11-5.5c-0.4-0.2-0.8-0.3-1.2-0.3H57.3C56,253.3,55,254.2,54.9,255.5z"/>
	<path class="st4" d="M57.3,253.3H66v15.3h-8.7c-1.3,0.1-2.3-0.9-2.4-2.1v-11C55,254.2,56,253.3,57.3,253.3z"/>
	<path class="st5" d="M1103.3,389.6c-11.3,4-23.9,1.8-33.2-5.8c-11.6-9.7-15.3-25.8-18.2-40.7c-2.9-14.7-5.8-29.3-8.8-44l18.3,12.6
		c13.2,9.1,26.7,18.5,35.8,31.6c9.1,13.2,13.1,31.1,5.8,45.4"/>
	<path class="st6" d="M1101.8,442.9c1.9-13.5,3.8-27.2,2.5-40.9c-1.2-12.1-4.9-24-12.4-33.7c-4-5.2-8.9-9.6-14.4-13
		c-1.4-0.9-2.8,1.4-1.3,2.3c9.6,6,16.9,15,21.1,25.5c4.6,11.7,5.3,24.4,4.5,36.8c-0.5,7.5-1.5,15-2.5,22.4c-0.2,0.7,0.2,1.4,0.9,1.6
		C1100.8,444,1101.6,443.6,1101.8,442.9L1101.8,442.9z"/>
	<path class="st5" d="M1083.9,419c-4.9,7.4-13.2,11.7-22,11.4c-11.2-0.5-20.4-8.3-28.8-15.7l-24.8-21.9l16.4-0.8
		c11.8-0.6,23.9-1.1,35.1,2.5c11.2,3.6,21.6,12.4,23.6,24"/>
	<path class="st6" d="M1107,450.7c-8.9-15.8-19.3-33.4-37.8-39c-5.2-1.6-10.6-2.1-15.9-1.6c-1.7,0.1-1.3,2.8,0.4,2.6
		c9-0.7,18,1.6,25.4,6.7c7.2,4.9,12.7,11.7,17.5,18.8c2.9,4.4,5.5,9,8.1,13.6C1105.4,453.2,1107.8,452.2,1107,450.7L1107,450.7z"/>
	<path class="st6" d="M1121.3,467.3c-0.6-7.1-5.1-13.3-11.7-16v-9.1h-15.3v9.4c-6.3,2.9-10.5,8.9-11.1,15.7l-3.6,41.9h45.4
		L1121.3,467.3z"/>
	<path class="st7" d="M-78.4,510.7c0-0.8,0.6-1.4,1.4-1.4l1280.1,0.5c0.8,0,0.9,0.1,0.9,0.9c0,0.8-0.6,1.4-1.4,1.4H-77
		C-77.7,512.1-78.4,511.5-78.4,510.7z"/>
	<path class="st5" d="M253.7,265.7l4.6-1.9l3.1-22.8H303l3.4,22.7l4.1,2c0.5,0.2,0.7,0.8,0.4,1.3c-0.2,0.3-0.5,0.5-0.9,0.5h-56
		c-0.5,0-1-0.4-1-1C253.1,266.2,253.4,265.9,253.7,265.7z"/>
	<path class="st7" d="M175.7,239.9v-28.8h212.5v28.8c0,2.2-1.8,4-4,4.1H179.8C177.5,244,175.7,242.2,175.7,239.9z"/>
	<path class="st3" d="M175.5,101.4c0-2.7,2.2-4.9,4.9-4.9h203.2c2.7,0,4.9,2.2,4.9,4.9v123.4H175.5V101.4z"/>
	<path class="st2" d="M184.5,212V109.2c0-2.1,1.7-3.8,3.8-3.8h187.5c2.1,0,3.8,1.7,3.8,3.8V212c0,2.1-1.7,3.8-3.8,3.8H188.2
		C186.2,215.8,184.5,214.1,184.5,212z"/>
	<path class="st2" d="M579.6,0h187.9v224.4H579.6V0z"/>
	<path class="st1" d="M579.6,0h187.9v224.4H579.6V0z M764.2,3.3H582.9V221h181.3V3.3z"/>
	<rect x="607.9" y="108.6" class="st8" width="131.4" height="5.1"/>
	<polygon class="st9" points="725.2,78.3 726.6,78.3 726.6,26.9 676.1,26.9 676.1,28.3 725.2,28.3 	"/>
	<polygon class="st9" points="624.2,83 674.7,83 674.7,81.6 625.6,81.6 625.6,31.6 624.2,31.6 	"/>
	<rect x="607.9" y="121.9" class="st8" width="131.4" height="5.1"/>
	<rect x="607.9" y="135.1" class="st8" width="131.4" height="5.1"/>
	<rect x="607.9" y="158.4" class="st8" width="131.4" height="5.1"/>
	<rect x="607.9" y="171.7" class="st8" width="131.4" height="5.1"/>
	<rect x="607.9" y="184.9" class="st8" width="131.4" height="5.1"/>
	<path class="st4" d="M663.6,40.9l1.3-1.6l-2-2.3l-1.8,1.1c-1-0.8-2.2-1.4-3.5-1.7l-0.2-2.3l-3-0.2l-0.5,2.2c-1.4,0.2-2.8,0.6-4,1.3
		l-1.5-1.2l-2.3,2l1,1.6c-0.9,1.1-1.5,2.4-1.8,3.8l-2.2,0.2l-0.2,3l2.2,0.5c0.2,1.3,0.6,2.6,1.3,3.7l-1.2,1.5l2,2.3l1.6-1
		c1.1,0.8,2.3,1.4,3.6,1.8l0.2,2.4l3,0.2l0.5-2.3c1.4-0.2,2.7-0.6,3.9-1.3l1.6,1.3l2.3-2l-1.1-1.8c0.8-1.1,1.5-2.3,1.8-3.7l2.3-0.2
		l0.2-3l-2.3-0.5C664.7,43.3,664.3,42,663.6,40.9z M660.4,52c-3.3,2.9-8.4,2.6-11.4-0.7c-2.9-3.3-2.6-8.4,0.7-11.4
		c3.3-2.9,8.4-2.6,11.4,0.7l0,0C664.1,44,663.8,49.1,660.4,52L660.4,52z"/>
	<path class="st4" d="M681.7,62.8l1.8-1l-1-2.8l-2.1,0.4c-0.7-1.1-1.5-2.1-2.6-2.9l0.6-2.2l-2.7-1.3l-1.3,1.8
		c-1.4-0.4-2.8-0.5-4.2-0.2l-0.9-1.7l-2.8,1l0.3,1.9c-1.2,0.7-2.3,1.7-3.1,2.9l-2.1-0.6l-1.3,2.7l1.9,1.3c-0.3,1.3-0.4,2.6-0.1,3.9
		l-1.7,0.9l1,2.8l1.9-0.3c0.7,1.2,1.6,2.2,2.7,3l-0.6,2.3L668,76l1.3-1.9c1.3,0.3,2.7,0.4,4.1,0.2l1,1.8l2.8-1l-0.4-2.1
		c1.2-0.7,2.2-1.6,3-2.7l2.3,0.6l1.3-2.7l-2-1.4C681.9,65.5,681.9,64.1,681.7,62.8z M674.7,72c-4.2,1.5-8.8-0.7-10.3-4.9
		c-1.5-4.2,0.7-8.8,4.9-10.3c4.2-1.5,8.8,0.7,10.3,4.9C681,65.9,678.9,70.5,674.7,72z"/>
	<path class="st4" d="M704.1,49.7l1.3-1.7l-2.1-2.2l-1.7,1.2c-1.1-0.8-2.3-1.3-3.5-1.6l-0.3-2.3l-3-0.1l-0.4,2.2
		c-1.4,0.2-2.8,0.7-4,1.5l-1.5-1.2l-2.2,2.1l1.1,1.6c-0.8,1.2-1.4,2.5-1.7,3.9l-2.2,0.3l-0.1,3l2.3,0.4c0.2,1.3,0.7,2.5,1.4,3.6
		l-1.2,1.5l2.1,2.2l1.6-1.1c1.1,0.8,2.3,1.4,3.6,1.6l0.3,2.4l3,0.1l0.4-2.3c1.4-0.2,2.7-0.7,3.8-1.5l1.7,1.3l2.2-2.1l-1.2-1.7
		c0.8-1.1,1.4-2.4,1.7-3.7l2.3-0.3l0.1-3l-2.3-0.4C705.3,52.1,704.8,50.9,704.1,49.7z M701.4,61c-3.2,3.1-8.3,2.9-11.4-0.3
		c-3.1-3.2-2.9-8.3,0.3-11.4c3.2-3.1,8.3-2.9,11.4,0.3C704.7,52.8,704.6,57.9,701.4,61z"/>
	<path class="st4" d="M306.5,169.6l5.4-0.4l0.7-7.8l-5.2-1.3c-0.3-3.4-1.3-6.6-2.9-9.6l3.8-4.5l-5-6l-4.9,2.9
		c-2.8-2.4-6.1-4.1-9.7-5.1l-0.4-5l-7.8-0.7l-1.2,4.8c-3.7,0.4-7.2,1.5-10.4,3.4l-4.4-3.7l-6,5l3,5.1c-2.1,2.7-3.6,5.7-4.5,9l-5,0.4
		l-0.7,7.8l4.8,1.2c0.3,3.5,1.4,6.8,3.1,9.9l-4,4.7l5,6l5.2-3.1c2.7,2.2,5.9,3.9,9.4,4.9l0.4,5.4l7.8,0.7l1.3-5.2
		c3.5-0.4,7-1.4,10-3.2l4.6,3.9l6-5l-3.1-5.3C304,176,305.6,172.9,306.5,169.6z M280.1,183.6c-11.4-1-19.9-11.1-18.9-22.5
		c1-11.4,11.1-19.9,22.5-18.9c11.4,1,19.9,11.1,18.9,22.5v0C301.7,176.1,291.6,184.6,280.1,183.6z"/>
	<path class="st3" d="M894.6,368.5H828c0,1.9-68.7,3.5-68.7,3.5c-1.1,0.8-2.1,1.7-2.9,2.8c-2.6,3.1-4,7-4,11.1v2.8
		c0,9.6,7.8,17.3,17.3,17.3h124.9c9.6,0,17.3-7.8,17.3-17.3v-2.8C911.9,376.3,904.2,368.5,894.6,368.5z"/>
	<rect x="822.1" y="405.3" class="st3" width="18" height="116.6"/>
	<path class="st3" d="M770.8,521.2c0,1.9,27.3,0.8,61.1,0.8c33.7,0,61.1,1.2,61.1-0.8s-27.3-17.4-61.1-17.4
		C798.1,503.8,770.8,519.3,770.8,521.2z"/>
	<polygon class="st0" points="787.1,507.6 770.1,507.6 762,463.4 787.1,463.4 	"/>
	<path class="st10" d="M791.4,524.1l-54.9,0v-0.7c0-11.8,9.6-21.4,21.4-21.4c0,0,0,0,0,0h0l33.5,0L791.4,524.1z"/>
	<path class="st10" d="M761.6,480.2l-33.9-76.1c-5.9-13.3-0.5-28.9,12.2-35.8l73.6-39.5l33.6-2.9l31-2.8l0.2,0.4
		c0.3,0.5,6.9,12,2.4,24.6c-3.4,9.6-12.3,17-26.4,22.2c-32.9,12.1-70.9,22.4-85.8,26.3c-1.3,0.3-2.4,1.2-3.1,2.4
		c-0.6,1.2-0.7,2.6-0.3,3.9l31.5,70.8c1.2,3.2-0.5,6.8-3.7,8c-0.5,0.2-1,0.3-1.6,0.4l-23.5,1.7c-0.2,0-0.4,0-0.6,0
		C764.9,483.9,762.6,482.5,761.6,480.2z"/>
	<polygon class="st0" points="798.2,507.6 781.2,507.6 773.1,463.4 798.2,463.4 	"/>
	<path class="st10" d="M802.5,524.1l-54.9,0v-0.7c0-11.8,9.6-21.4,21.4-21.4c0,0,0,0,0,0h0l33.5,0L802.5,524.1z"/>
	<path class="st10" d="M774.1,484.4l-33.9-76.1c-5.9-13.3-0.5-28.9,12.2-35.8l73.6-39.5l33.6-2.9l24.3-2.1l0-0.3
		c0.3,0.5,6.9,12,2.4,24.6c-3.4,9.6-5.4,17-19.5,22.2c-32.9,12.1-70.9,22.4-85.8,26.3c-1.3,0.3-2.4,1.2-3.1,2.4
		c-0.6,1.2-0.7,2.6-0.3,3.9l31.5,70.8c1.2,3.2-0.5,6.8-3.7,8c-0.5,0.2-1,0.3-1.6,0.4l-23.5,1.7c-0.2,0-0.4,0-0.6,0
		C777.3,488.1,775.1,486.6,774.1,484.4z"/>
	<path class="st4" d="M838,329.5c-1.6-1.2-25,11.1-29.1,1.4c19.4-48.6,6-69.6,17.9-97.4c4.2-9.7,12.7-17,23-19.7l30.9-1.6l0.2,0.1
		c14.3,7,22.3,22.6,19.7,38.3c-0.1,30.3-18.2,53.4-11.9,75.4c0.5,1.9,0.3,3.9-0.7,5.5c-0.9,1.6-2.5,2.8-4.3,3.2l-40.8-5.4
		c-1.9,0.5-4,0.1-5.6-1.1L838,329.5z"/>
	<circle class="st0" cx="870.4" cy="166.6" r="34.1"/>
	<path class="st0" d="M806,282.1l-59.2-46.7c-0.5,0.2-1,0.3-1.4,0.4c-4.2,1-8.7,0.1-12.2-2.3c-3.6-2.5-5.9-6.4-6.4-10.7
		c-1-8.4,5-16,13.4-16.9c7.7-0.9,14.9,4.1,16.6,11.7c0.2,0.7,0.3,1.3,0.3,2l59,34l14.7-8.4l16.3,21.3l-22.8,16.2
		C818.7,286.4,811.3,286.3,806,282.1z"/>
	<path class="st4" d="M854.1,273l-33.8-23l15.9-22.5c4.4-6.2,12.5-8.3,19.3-5.1l0,0c6.9,3.3,10.4,11.1,8.2,18.4L854.1,273z"/>
	<path class="st10" d="M881.3,197.9c-1.8,0.8-5.5-13.6-3.9-16.5c2.5-4.3,2.3-4.3,4-7.1s2-6.7-0.1-9.2s-7-2.2-8,1
		c0.6-6-5.3-10.7-11.1-12.1c-5.8-1.3-12-0.5-17.8-1.7c-6.8-1.4-13.9-7.1-11.2-14.6c0.5-1.2,1.2-2.4,2.1-3.4c3.1-3.5,7.5-5,11.8-6.5
		c8.9-3,18.1-6.1,27.5-5.8c15.9,0.8,29.7,11,35.3,25.8c0.6,1.8,1.2,3.7,1.5,5.6c3.2,17.4-6.9,34.5-23.3,41.1L881.3,197.9z"/>
	<path class="st3" d="M397.1,385.7v2.8c0,9.6,7.8,17.3,17.3,17.3h124.9c9.6,0,17.3-7.8,17.3-17.3v-2.8c0-4.1-1.4-8-4-11.1
		c-0.9-1-1.9-2-2.9-2.8c0,0-68.7-1.6-68.7-3.5h-66.6C404.9,368.4,397.2,376.2,397.1,385.7z"/>
	<rect x="468.9" y="405.2" class="st3" width="18" height="116.6"/>
	<path class="st3" d="M477.3,503.7c-33.7,0-61.1,15.5-61.1,17.4s27.3,0.8,61.1,0.8s61.1,1.2,61.1-0.8
		C538.3,519.2,511,503.7,477.3,503.7z"/>
	<polygon class="st0" points="537.5,461 562.6,461 554.5,505.2 537.5,505.2 	"/>
	<path class="st10" d="M533.2,499.6l33.5,0h0c11.8,0,21.4,9.6,21.4,21.4c0,0,0,0,0,0v0.7l-54.9,0L533.2,499.6z"/>
	<path class="st10" d="M557.3,481.5c-0.2,0-0.4,0-0.6,0l-23.5-1.7c-3.4-0.3-6-3.4-5.6-6.8c0-0.5,0.2-1.1,0.4-1.6l31.5-70.8
		c0.5-1.3,0.4-2.7-0.3-3.9c-0.6-1.2-1.7-2.1-3.1-2.4c-14.8-3.9-52.8-14.2-85.8-26.3c-14.1-5.2-23-12.6-26.4-22.2
		c-4.5-12.6,2.2-24.1,2.4-24.6l0.2-0.4l31,2.8l33.6,2.9l73.6,39.5c12.8,6.9,18.1,22.5,12.2,35.8L563,477.8
		C562,480,559.7,481.5,557.3,481.5z"/>
	<polygon class="st0" points="529.2,461 554.3,461 546.2,505.2 529.2,505.2 	"/>
	<path class="st10" d="M524.9,499.6l33.5,0h0c11.8,0,21.4,9.6,21.4,21.4c0,0,0,0,0,0v0.7l-54.9,0L524.9,499.6z"/>
	<path class="st10" d="M547.6,485.7c-0.2,0-0.4,0-0.6,0l-23.5-1.7c-3.4-0.3-6-3.4-5.6-6.8c0-0.5,0.2-1.1,0.4-1.6l31.5-70.8
		c0.5-1.3,0.4-2.7-0.3-3.9c-0.6-1.2-1.7-2.1-3.1-2.4c-14.8-3.9-52.8-14.2-85.8-26.3c-14.1-5.2-23-12.6-26.4-22.2
		c-4.5-12.6,2.2-24.1,2.4-24.6l0.2-0.4l31,2.8l33.6,2.9l73.6,39.5c12.8,6.9,18.1,22.5,12.2,35.8l-33.9,76.1
		C552.3,484.2,550,485.7,547.6,485.7z"/>
	<path class="st4" d="M428.9,216.3c4.7-6,13.1-7.6,19.8-3.9l0,0c6.6,3.7,9.5,11.6,6.9,18.7l-9.3,25.9l-38.2-14.5L428.9,216.3z"/>
	<path class="st4" d="M505.3,345.3c-1.6,1.1-3.6,1.5-5.6,1.1l-58.8-14c-1.8-0.4-3.4-1.6-4.3-3.2c-1-1.7-1.2-3.7-0.7-5.5
		c6.3-22-2-49.2-11.9-75.4c-2.6-15.7,5.4-31.3,19.7-38.3l0.2-0.1l30.9,1.6c10.3,2.7,18.7,9.9,23,19.7
		c11.9,27.9,15.3,63.6,10.4,109.3C508,342.3,506.9,344.1,505.3,345.3L505.3,345.3z"/>
	<circle class="st0" cx="454.2" cy="164.2" r="34.1"/>
	<path class="st0" d="M500.5,280.2l-22.8-16.2l16.3-21.3l14.7,8.4l59-34c0.1-0.7,0.2-1.4,0.3-2c1.9-8.2,10.1-13.3,18.4-11.4
		c8.2,1.9,13.3,10.1,11.4,18.4c-1.9,8.2-10.1,13.3-18.4,11.4c-0.5-0.1-1-0.3-1.4-0.4l-59.2,46.7C513.3,283.8,505.9,284,500.5,280.2z
		"/>
	<path class="st4" d="M460.8,238.5c-2.2-7.3,1.3-15.1,8.2-18.4l0,0c6.8-3.2,15-1.1,19.3,5.1l15.9,22.5l-33.8,23L460.8,238.5z"/>
	<path class="st10" d="M466.8,159.3c1.3,2.3,1,5.2-0.8,7.2c-4.8,5.5-6.1,14-4.4,21.3c2.1,8.8,7.7,16.2,13.1,23.4
		s11.2,14.5,13.6,23.2c5.7,20.5-9.6,42.5-29.3,50.6c-19.7,8.1-42.2,5.6-62.9,0.7c-15.7-3.7-31.8-9.1-42.5-21.2
		c-10.7-12-13.6-32.4-2.2-43.7c8.9-8.9,22.8-9.6,35.2-11.9c12.4-2.2,26.5-8.8,28.1-21.3c1.7-12.4-10-22.7-12.2-35
		c-2.7-15.3,10.6-30,25.7-33.8s31,0.4,45.7,5.8c11.3,4.1,23,9.5,27.3,21.8c2.4,6.8,0.5,14.6-5.3,18.8c-8.9,6.4-20.5,0.2-29.2-5.8
		L466.8,159.3z"/>
</g>
</svg>
