<?xml version="1.0" encoding="utf-8"?>
<!-- Generator: Adobe Illustrator 24.0.1, SVG Export Plug-In . SVG Version: 6.00 Build 0)  -->
<svg version="1.1" id="b8c64dc2-e86a-49bc-92bf-164106d9e7fb"
	 xmlns="http://www.w3.org/2000/svg" xmlns:xlink="http://www.w3.org/1999/xlink" x="0px" y="0px" viewBox="0 0 890.2 504.9"
	 style="enable-background:new 0 0 890.2 504.9;" xml:space="preserve">
<style type="text/css">
	.st0{fill:#E6E6E6;}
	.st1{fill:#FFFFFF;}
	.st3{fill:#CCCCCC;}
	.st4{fill:#FFB9B9;}
	.st5{fill:#2F2E41;}
	.st6{fill:#3F3D56;}
</style>
<title>proud_coder</title>
<g>
	<rect x="374.9" y="0.3" class="st0" width="515.3" height="330"/>
	<rect x="389.7" y="41.7" class="st1" width="485.8" height="269.1"/>
	<rect x="374.7" class="st2" width="515.3" height="21.9"/>
	<circle class="st1" cx="391" cy="11.2" r="4.1"/>
	<circle class="st1" cx="406.4" cy="11.2" r="4.1"/>
	<circle class="st1" cx="421.8" cy="11.2" r="4.1"/>
	<path class="st3" d="M738,66.9H579.8c-0.8-0.1-1.3-0.8-1.2-1.6c0.1-0.6,0.6-1.1,1.2-1.2H738c0.8,0.1,1.3,0.8,1.2,1.6
		C739.1,66.3,738.6,66.8,738,66.9z"/>
	<path class="st3" d="M628.4,82.2H527.8c-0.8-0.1-1.3-0.8-1.2-1.6c0.1-0.6,0.6-1.1,1.2-1.2h100.6c0.8,0.1,1.3,0.8,1.2,1.6
		C629.5,81.6,629,82.1,628.4,82.2z"/>
	<path class="st3" d="M738,82.5H637.4c-0.8-0.1-1.3-0.8-1.2-1.6c0.1-0.6,0.6-1.1,1.2-1.2H738c0.8,0.1,1.3,0.8,1.2,1.6
		C739.1,81.9,738.6,82.4,738,82.5z"/>
	<path class="st3" d="M628.7,97.5H528.1c-0.8-0.1-1.3-0.8-1.2-1.6c0.1-0.6,0.6-1.1,1.2-1.2h100.6c0.8,0.1,1.3,0.8,1.2,1.6
		C629.8,96.9,629.3,97.4,628.7,97.5z"/>
	<path class="st3" d="M628.9,112.8H528.3c-0.8-0.1-1.3-0.8-1.2-1.6c0.1-0.6,0.6-1.1,1.2-1.2h100.6c0.8,0.1,1.3,0.8,1.2,1.6
		C630,112.2,629.5,112.7,628.9,112.8z"/>
	<path class="st3" d="M674.5,97.5h-28.8c-0.8-0.1-1.3-0.8-1.2-1.6c0.1-0.6,0.6-1.1,1.2-1.2h28.8c0.8,0.1,1.3,0.8,1.2,1.6
		C675.7,96.9,675.2,97.4,674.5,97.5L674.5,97.5z"/>
	<path class="st3" d="M674.5,112.5h-28.8c-0.8-0.1-1.3-0.8-1.2-1.6c0.1-0.6,0.6-1.1,1.2-1.2h28.8c0.8,0.1,1.3,0.8,1.2,1.6
		C675.7,112,675.2,112.5,674.5,112.5L674.5,112.5z"/>
	<path class="st3" d="M722.9,112.5h-28.8c-0.8-0.1-1.3-0.8-1.2-1.6c0.1-0.6,0.6-1.1,1.2-1.2h28.8c0.8,0.1,1.3,0.8,1.2,1.6
		C724,112,723.5,112.5,722.9,112.5z"/>
	<path class="st3" d="M555.9,66.9h-28.8c-0.8-0.1-1.3-0.8-1.2-1.6c0.1-0.6,0.6-1.1,1.2-1.2h28.8c0.8,0.1,1.3,0.8,1.2,1.6
		C557,66.3,556.5,66.8,555.9,66.9z"/>
	<path class="st3" d="M628,242.4H527.5c-0.8-0.1-1.3-0.8-1.2-1.6c0.1-0.6,0.6-1.1,1.2-1.2H628c0.8,0.1,1.3,0.8,1.2,1.6
		C629.2,241.8,628.7,242.3,628,242.4L628,242.4z"/>
	<path class="st3" d="M627.6,273H527c-0.8-0.1-1.3-0.8-1.2-1.6c0.1-0.6,0.6-1.1,1.2-1.2h100.6c0.8,0.1,1.3,0.8,1.2,1.6
		C628.7,272.5,628.2,273,627.6,273z"/>
	<path class="st3" d="M627.8,288.4H527.2c-0.8-0.1-1.3-0.8-1.2-1.6c0.1-0.6,0.6-1.1,1.2-1.2h100.6c0.8,0.1,1.3,0.8,1.2,1.6
		C628.9,287.8,628.4,288.3,627.8,288.4L627.8,288.4z"/>
	<path class="st3" d="M670.8,273.3H642c-0.8-0.1-1.3-0.8-1.2-1.6c0.1-0.6,0.6-1.1,1.2-1.2h28.8c0.8,0.1,1.3,0.8,1.2,1.6
		C671.9,272.7,671.4,273.2,670.8,273.3L670.8,273.3z"/>
	<path class="st3" d="M670.8,288.4H642c-0.8-0.1-1.3-0.8-1.2-1.6c0.1-0.6,0.6-1.1,1.2-1.2h28.8c0.8,0.1,1.3,0.8,1.2,1.6
		C671.9,287.8,671.4,288.3,670.8,288.4L670.8,288.4z"/>
	<path class="st3" d="M719.1,273.3h-28.8c-0.8-0.1-1.3-0.8-1.2-1.6c0.1-0.6,0.6-1.1,1.2-1.2h28.8c0.8,0.1,1.3,0.8,1.2,1.6
		C720.2,272.7,719.7,273.2,719.1,273.3z"/>
	<path class="st3" d="M738.1,257.7H580c-0.8-0.1-1.3-0.8-1.2-1.6c0.1-0.6,0.6-1.1,1.2-1.2h158.2c0.8,0.1,1.3,0.8,1.2,1.6
		C739.3,257.2,738.8,257.7,738.1,257.7z"/>
	<path class="st3" d="M556,257.7h-28.8c-0.8-0.1-1.3-0.8-1.2-1.6c0.1-0.6,0.6-1.1,1.2-1.2H556c0.8,0.1,1.3,0.8,1.2,1.6
		C557.2,257.2,556.7,257.7,556,257.7z"/>
	<polygon class="st0" points="603.8,137.5 564.7,176.1 603.8,214.7 612.5,205.9 583,176.4 612.8,146.6 	"/>
	<polygon class="st0" points="661.4,137.5 700.4,176.1 661.4,214.7 652.6,205.9 682.1,176.4 652.3,146.6 	"/>
	<polygon class="st2" points="603.8,137.5 564.7,176.1 603.8,214.7 612.5,205.9 583,176.4 612.8,146.6 	"/>
	<polygon class="st2" points="661.4,137.5 700.4,176.1 661.4,214.7 652.6,205.9 682.1,176.4 652.3,146.6 	"/>
</g>
<path class="st0" d="M470.6,481.3c14.4,19.3,44.4,21.3,44.4,21.3s6.6-29.3-7.9-48.6s-44.4-21.3-44.4-21.3S456.2,461.9,470.6,481.3z"
	/>
<path class="st0" d="M544.1,488.5c-9.5,12.7-29.3,14.1-29.3,14.1s-4.3-19.3,5.2-32.1s29.3-14.1,29.3-14.1S553.6,475.8,544.1,488.5z"
	/>
<g>
	<polygon class="st4" points="245.5,416.9 245.5,457.5 233.9,457.5 226.2,414.9 	"/>
	<polygon class="st4" points="153.7,416.9 153.7,457.5 142.1,457.5 134.3,414.9 	"/>
	<path class="st4" d="M214.9,117.5c0,0-18.6-13.4-21-7c-2.3,6.4,14,18.1,14,18.1L214.9,117.5z"/>
	<path class="st5" d="M148.7,134.7c0,23.2,10,23.9,26.2,23.9s32.6-0.7,32.6-23.9s-13.2-41.9-29.4-41.9S148.7,111.5,148.7,134.7z"/>
	<path class="st4" d="M188.7,134.4c0,0-2.3,17.5,8.7,18.6c11.1,1.2-36.1,4.7-36.1,4.7s12.2-11.1,5.8-19.8
		C160.7,129.2,188.7,134.4,188.7,134.4z"/>
	<path class="st5" d="M247.5,446.7l4.1,34.4c0,0,20.4,25.1,7.6,23.3c-12.8-1.7-21,0.4-21-2s-0.3-10.7-2-10.7s-3.2,13.1-3.2,13.1
		s-5.2-0.4-5.8-1c-0.6-0.6-1.2-33.9-1.2-33.9s-1.7-9.9,1.7-14.6c3.5-4.7,2.9-8.7,2.9-8.7H247.5z"/>
	<path class="st5" d="M154.7,446.3l4.1,34.4c0,0,20.4,25.1,7.6,23.3s-21,0.4-21-2s-0.3-10.7-2-10.7c-1.7,0-3.2,13.1-3.2,13.1
		s-5.2-0.4-5.8-1c-0.6-0.6-1.2-33.9-1.2-33.9s-1.7-9.9,1.7-14.6c3.5-4.7,2.9-8.7,2.9-8.7H154.7z"/>
	<path class="st5" d="M217.2,242.2c0,0,18.6,53,19.8,64.7c1.2,11.7-1.2,51.3-1.2,51.3s16.9,68.5,13.4,69c-3.5,0.6-23,3.3-23.5,0.4
		c-0.6-2.9-2.7-7.4-2.1-9.2s-1.7-8.2-1.7-11.7c0-3.5-8.2-21.8-7.6-24.8c0.6-2.9-9.9-46-11.7-49.5s-6.4-28-6.4-28
		s-26.2,71.7-26.8,73.4c-0.6,1.7-2.9,4.7-1.7,5.2c1.2,0.6-1.7,4.7-1.7,4.7s-6,24.2-6,25.3c0,1.2,1.2,14.4-1.2,14.9
		c-2.3,0.6-26.1,0.5-27.3-3.5s12.4-51.3,12.4-51.3s9.9-29.7,7-37.3c-2.9-7.6,2.9-53,5.2-56.5c2.3-3.5,2.9-24.5,2.9-24.5L217.2,242.2
		z"/>
	<circle class="st4" cx="178.5" cy="125.4" r="18.6"/>
	<path class="st2" d="M188.7,149c0,0-21,0.6-22.1-1.2c-1.2-1.7-30.3,4.1-30.3,15.7c0,11.7,16.9,57.1,16.9,57.1s6.4,32.6,4.7,36.1
		s64.7-7.6,62.9-13.4c-1.7-5.8-11.7-18.6,1.2-29.7s18.1-22.7,18.1-22.7l-15.1-40.2c0,0-15.1-2.3-18.6,0
		C202.6,153.1,188.7,149,188.7,149z"/>
	<path class="st2" d="M235.8,193.8l4.1-2.9c0,0,37.9-39.6,28-47.2c-9.9-7.6-24.5-14.6-31.5-15.1c-7-0.6-12.8-5.8-12.8-5.8
		s-7.6-13.4-13.4-4.7s-12.2,11.7-4.1,14.6c8.2,2.9,13.4,1.7,17.5,4.7c4.1,2.9,19.8,7.6,12.8,9.3c-4,1-7.9,2.3-11.7,4.1l-7.6,13.4
		L235.8,193.8z"/>
	<path class="st4" d="M170,292.3c0,0,15.1,22.1,4.1,21c-11.1-1.2-16.3-16.3-16.3-16.3L170,292.3z"/>
	<path class="st2" d="M140.3,160.6l-4.1,2.9c0,0-13.4,73.4,0,92.6s14.6,18.1,14.6,18.1s2.3-1.7,3.5,9.9s-0.6,16.3,2.9,16.3
		c3.5,0,19.2-3.5,18.1-6.4c-1.2-2.9-8.7-19.8-9.3-23.9c-0.6-4.1-3.5-13.4-4.7-18.6c-1.2-5.2,5.2-8.2,2.3-19.2c-2.9-11.1-7-30.9-7-35
		C156.6,193.3,140.3,160.6,140.3,160.6z"/>
	<path class="st5" d="M160.4,108.8c0,6.3,8.6,11.4,19.2,11.4s20.4,3.4,20.4-2.9s-9.8-19.8-20.4-19.8S160.4,102.5,160.4,108.8z"/>
	<path class="st5" d="M207.4,138.6c0,0,0.8,21.1-20.2,20s2.8-18.1,2.8-18.1L207.4,138.6z"/>
</g>
<rect y="502.6" class="st6" width="702.9" height="2.2"/>
</svg>
